<svg width="235" height="72" viewBox="0 0 235 72" fill="none" xmlns="http://www.w3.org/2000/svg">
<path d="M49.1292 39.6344C49.6037 39.3611 50.1452 39.0179 50.6198 38.7425C52.1282 37.6957 53.5123 36.4758 54.7445 35.107C54.1375 31.4023 52.7538 27.8725 50.6867 24.7556C50.6778 24.7553 50.669 24.7569 50.6607 24.7602C50.6525 24.7635 50.645 24.7685 50.6387 24.7748C50.6324 24.7812 50.6275 24.7888 50.6243 24.7971C50.621 24.8055 50.6195 24.8144 50.6198 24.8234C49.8895 25.6432 49.072 26.3786 48.1821 27.0161C47.77 27.337 47.3407 27.6348 46.8964 27.9081C46.7215 27.9707 46.5577 28.0616 46.4114 28.1771C46.6098 28.5237 46.769 28.8918 46.8859 29.2746C47.3584 30.5754 47.7661 31.8783 48.1717 33.249C48.6671 35.3465 48.9874 37.4825 49.1292 39.6344Z" fill="white"/>
<path d="M55.1482 46.9714C55.1472 46.9657 55.1472 46.9599 55.1482 46.9541V46.9714Z" fill="white"/>
<path d="M50.6155 49.4392C52.0212 48.4903 53.3552 47.4366 54.6064 46.2868C54.9593 44.6632 55.163 43.01 55.2148 41.3484C55.2146 39.9742 55.1449 38.601 55.0057 37.2341C53.7041 38.5947 52.2274 39.7712 50.6155 40.7318C50.155 41.0084 49.6805 41.2602 49.1938 41.4861V41.8293C49.2098 44.6722 48.8683 47.5057 48.1778 50.2612C48.1088 50.4731 48.0419 50.6722 47.9688 50.9498C48.0356 50.8799 48.1025 50.8799 48.1778 50.8099C49.0184 50.4062 49.8326 49.9483 50.6155 49.4392Z" fill="white"/>
<path d="M57.7631 29.1686C56.9239 25.802 55.358 22.666 53.1785 19.9867C52.8861 21.2501 52.3635 22.4471 51.6377 23.5163C53.742 26.449 55.2357 29.7849 56.0279 33.321C56.8062 32.0317 57.3909 30.6322 57.7631 29.1686Z" fill="white"/>
<path d="M47.3646 42.3716C47.2308 42.4416 47.028 42.5094 46.8922 42.5835C46.2838 42.7954 45.7423 42.9945 45.1319 43.2C44.2538 43.4733 43.3047 43.7487 42.3576 43.9542C41.6824 44.0919 41.005 44.2275 40.267 44.3652C38.8952 44.5489 37.515 44.6613 36.1318 44.7021V53.812C37.5146 53.8034 38.8948 53.6894 40.2608 53.4709C41.005 53.3332 41.6824 53.1955 42.3514 53.0472C43.2984 52.7739 44.1806 52.5006 45.1256 52.1574C45.4079 52.0726 45.6806 51.9575 45.9388 51.8142C46.3328 50.4625 46.649 49.0887 46.8859 47.6999C47.185 45.9395 47.3451 44.1578 47.3646 42.3716Z" fill="white"/>
<path d="M45.3368 53.6234C45.2678 53.6234 45.2009 53.6912 45.1277 53.6912C44.2224 54.0286 43.2955 54.3033 42.3535 54.5132L40.3235 54.9242H40.2566C38.889 55.1205 37.5089 55.2126 36.1277 55.1996V58.3351C38.9713 58.2299 41.7714 57.5943 44.3876 56.4602L44.1117 56.5661C44.4504 55.8091 44.7883 55.0542 45.1256 54.3014C45.2009 54.0344 45.2678 53.8268 45.3368 53.6234Z" fill="white"/>
<path d="M45.1318 25.3721C45.4036 25.9187 45.6064 26.3996 45.8782 26.8806L46.8921 26.2704C47.3369 25.9734 47.766 25.653 48.1778 25.3107C48.7909 24.8165 49.3571 24.2654 49.8691 23.6645C49.3415 22.9714 48.7769 22.308 48.1778 21.6773C47.7723 21.2663 47.2977 20.8532 46.8921 20.4422C46.3354 19.9255 45.7475 19.4443 45.1318 19.0016C44.4566 18.5228 43.7792 18.044 43.1019 17.6308C42.862 17.7832 42.6135 17.9211 42.3576 18.044C41.8161 18.385 41.1409 18.5905 40.3276 18.7982C41.0598 19.5438 41.7382 20.3417 42.3576 21.1858C43.3825 22.5103 44.3097 23.9096 45.1318 25.3721Z" fill="white"/>
<path d="M38.7054 19.1308C37.959 19.2007 37.081 19.2685 36.1318 19.3427V29.8318C37.5238 29.7142 38.9044 29.4854 40.2608 29.1475C40.9764 29.014 41.6768 28.8074 42.3514 28.5309C43.0287 28.3191 43.7061 27.9822 44.3813 27.7068C43.7863 26.4064 43.1082 25.1467 42.3514 23.9357C41.7329 22.8766 41.0339 21.8679 40.2608 20.9189C39.7783 20.2917 39.2589 19.6946 38.7054 19.1308Z" fill="white"/>
<path d="M46.8921 36.0689C46.4994 33.8254 45.9103 31.6219 45.1319 29.4843C45.065 29.2725 44.996 29.1432 44.9228 28.9377C44.0945 29.3503 43.2346 29.6939 42.3514 29.9652C41.6653 30.188 40.9673 30.3712 40.2608 30.5139C38.9092 30.8638 37.5255 31.0704 36.1318 31.1304V43.0623C37.5182 43.0644 38.9013 42.9267 40.2608 42.6513C40.9697 42.5871 41.6702 42.4494 42.3514 42.2403C43.2955 42.0379 44.223 41.7623 45.1256 41.4162C45.7233 41.2181 46.3108 40.9897 46.8859 40.7319C47.0383 40.6501 47.1962 40.5793 47.3583 40.52C47.2977 39.0179 47.0949 37.4989 46.8921 36.0689Z" fill="white"/>
<path d="M55.7563 45.8736V45.8925C55.7563 45.8778 55.771 45.8672 55.7772 45.8546L55.7563 45.8736Z" fill="white"/>
<path d="M23.8872 41.0729C25.5664 41.7611 27.3127 42.2675 29.097 42.5835C30.8214 42.8704 32.561 43.0536 34.3068 43.1322V31.1304C32.5516 31.1384 30.8021 30.9292 29.097 30.5076C27.9306 30.2438 26.7958 29.8531 25.7123 29.3423C24.4935 32.9821 23.9541 36.9586 23.8872 41.0729Z" fill="white"/>
<path d="M34.3067 55.1297C32.5532 55.0193 30.8111 54.7678 29.097 54.3777C27.945 54.1022 26.7283 53.759 25.6454 53.4158C26.8642 53.4857 27.945 53.5556 29.097 53.6277C30.7883 53.6955 32.4795 53.7633 34.3067 53.8395V44.7021C32.5546 44.6179 30.8121 44.3883 29.097 44.0157C27.2977 43.63 25.5491 43.032 23.8872 42.2339V42.5072C23.9541 46.005 23.6781 47.5918 23.9541 50.9434C22.9349 47.9215 22.4535 44.7401 22.5325 41.5475C20.3279 40.398 18.3725 38.8133 16.7812 36.8866C18.5042 38.3879 20.4438 39.6132 22.5325 40.52C22.5994 39.2192 22.7415 37.9163 22.8712 36.5434C23.256 33.934 23.8674 31.364 24.6983 28.8636C22.7702 27.9077 21.061 26.5531 19.6809 24.887C21.2504 26.2515 23.0338 27.3406 24.9576 28.1093C25.9715 25.3679 27.3262 22.6921 29.0865 20.4295C29.5732 19.7657 30.116 19.1462 30.7088 18.5778C30.1544 18.3325 29.6129 18.0581 29.0865 17.7558C28.3223 17.3011 27.6196 16.7477 26.9959 16.1097H27.0628C27.7023 16.4887 28.3846 16.7882 29.0949 17.0016C30.9613 17.5623 32.8995 17.8394 34.8461 17.8236C37.2148 17.8236 38.9729 17.5503 40.2587 17.0016C41.0835 16.7484 41.8127 16.2466 42.3493 15.5631C42.611 15.259 42.7552 14.8692 42.7552 14.4657C42.7552 14.0622 42.611 13.6723 42.3493 13.3683C42.2998 13.2265 42.2049 13.1056 42.0796 13.025C41.6385 12.6013 41.3855 12.3323 41.2559 12.1776C37.8168 11.2437 34.2118 11.1243 30.7199 11.8286C27.228 12.5329 23.9428 14.042 21.1186 16.2391C18.2945 18.4362 16.0071 21.2624 14.4335 24.499C12.8599 27.7355 12.0423 31.2956 12.0439 34.9036C12.0439 47.541 21.9513 57.8373 34.3067 58.333V55.1297Z" fill="white"/>
<path d="M34.3067 29.8974V19.3384C33.4395 19.269 32.5795 19.1273 31.7353 18.9147C30.7673 19.9111 29.8847 20.9891 29.0969 22.1371C27.7933 24.1194 26.7464 26.2633 25.9819 28.5161C27.0005 28.8618 28.0413 29.1365 29.0969 29.3381C30.8113 29.6965 32.5563 29.8838 34.3067 29.8974Z" fill="white"/>
<path d="M50.6155 51.2231C49.8022 51.6341 48.9911 52.1129 48.1778 52.4561C47.924 52.5572 47.6756 52.6717 47.4336 52.7993C47.2245 53.2802 47.0949 53.8268 46.8921 54.3077C46.7583 54.7124 46.5597 55.0535 46.4238 55.456C49.1598 53.9341 51.5663 51.8707 53.5005 49.3884C52.6266 50.0663 51.619 50.6108 50.6155 51.2231Z" fill="white"/>
<path d="M56.237 44.9139L56.2078 45.0093C56.2224 44.9775 56.237 44.9457 56.2496 44.9139H56.237Z" fill="white"/>
<path d="M44.4565 13.3725C44.6656 14.6754 44.5234 15.7707 43.9819 16.5948C44.3875 16.8067 44.7283 17.0736 45.1318 17.2791C45.7422 17.7029 46.2837 18.1033 46.892 18.5821C47.2976 18.9253 47.7722 19.2685 48.1778 19.6795C48.9917 20.4337 49.8043 21.2564 50.6154 22.1476C50.6669 22.2517 50.7379 22.3445 50.8245 22.4209C51.5267 21.3888 52.0493 20.2423 52.3694 19.0312C50.1595 16.5839 47.4663 14.635 44.4649 13.311L44.4565 13.3725Z" fill="white"/>
<path d="M55.4177 46.4923V46.5133L55.4301 46.4923H55.4177Z" fill="white"/>
<path d="M58.4615 34.9036C58.4616 33.9832 58.4085 33.0636 58.3026 32.1495C57.8198 33.3465 57.192 34.478 56.4336 35.518C56.7723 37.4374 56.8392 39.4268 56.8392 41.5517C56.8392 42.3335 56.7765 43.1152 56.7137 43.8377C57.8705 41.0051 58.4644 37.9692 58.4615 34.9036Z" fill="white"/>
<path d="M12.5854 67.6103C14.676 67.748 17.051 68.2289 19.2858 67.748C21.5855 67.337 23.5485 66.032 25.8482 65.0066L33.3597 63.907C31.0601 65.1421 28.9695 65.4154 26.5925 67.0616C19.8273 71.589 16.1729 70.1484 12.5854 67.6103Z" fill="white"/>
<path d="M5.27881 60.7546C8.6614 62.3308 11.3018 63.5575 15.1569 63.7015C17.998 63.8392 20.5695 63.5659 24.5646 64.6612C21.182 65.0066 16.3778 66.1697 13.129 65.7587C11.4377 65.4854 9.81541 64.7312 8.3938 64.0447L5.27881 60.7546Z" fill="white"/>
<path d="M13.8711 55.9539C14.6843 57.5301 15.4286 59.4516 16.3798 60.7546C18.4098 63.4282 21.2509 63.9769 24.23 64.7989C22.4028 63.3604 20.5736 61.8499 18.7485 60.4114L13.8711 55.9539Z" fill="white"/>
<path d="M2.71777 43.4733C2.85366 47.8609 2.71777 49.0282 4.95053 52.6616L7.31709 54.8564C5.95402 50.0578 5.48154 47.8609 2.71777 43.4733Z" fill="white"/>
<path d="M2.02996 52.6616C4.12056 56.8437 3.92613 57.3225 8.59235 59.8648L14.007 60.958C12.1108 59.7249 8.98956 58.0788 8.05088 57.4623C7.03694 56.8437 1.62438 52.6616 2.02996 52.6616Z" fill="white"/>
<path d="M8.72827 49.3629C8.93733 55.3967 8.86416 55.3268 12.9241 60.1974C11.8433 56.2272 10.5555 53.0726 8.72827 49.3629Z" fill="white"/>
<path d="M24.968 71.8623L27.1339 72C28.8942 68.9132 31.3966 67.4726 34.6454 65.8964L35.8621 65.21C30.8551 65.21 26.9311 68.4302 24.968 71.8623Z" fill="white"/>
<path d="M58.0558 67.6103C55.9652 67.748 53.6655 68.2289 51.3659 67.748C49.0662 67.337 47.1032 66.032 44.8035 65.0066L37.3589 63.907C39.6585 65.1421 41.6906 65.4154 44.0593 67.0616C50.8161 71.589 54.4704 70.1484 58.0558 67.6103Z" fill="white"/>
<path d="M65.3647 60.7546C61.9801 62.3308 59.3417 63.5659 55.5536 63.7015C52.7103 63.8392 50.072 63.5659 46.0811 64.6612C49.4636 65.0066 54.2678 66.1697 57.5166 65.7587C59.2748 65.4854 60.8302 64.7312 62.2518 64.0447L65.3647 60.7546Z" fill="white"/>
<path d="M56.8393 55.9539C55.9591 57.5301 55.2818 59.4516 54.2678 60.7546C52.2379 63.4282 49.3947 63.9812 46.4114 64.7989C48.2386 63.3604 50.0657 61.8499 51.8929 60.4114L56.8393 55.9539Z" fill="white"/>
<path d="M67.9444 43.4733C67.8085 47.8609 67.9444 49.0282 65.7786 52.6616L63.4099 54.8564C64.6873 50.0578 65.1618 47.8609 67.9444 43.4733Z" fill="white"/>
<path d="M68.6783 52.6616C66.5877 56.8437 66.7173 57.3225 62.118 59.8648L56.6365 60.9601C58.5975 59.7271 61.6435 58.0809 62.6595 57.4644C63.6044 56.8437 69.0191 52.6616 68.6783 52.6616Z" fill="white"/>
<path d="M61.9131 49.3629C61.7041 55.3967 61.7772 55.3268 57.7173 60.1974C58.8692 56.2272 60.1549 53.0726 61.9131 49.3629Z" fill="white"/>
<path d="M45.6755 71.8623L43.5075 72C41.7494 68.9132 39.2469 67.4726 36.065 65.8964L34.7793 65.21C39.7863 65.21 43.7124 68.4302 45.6755 71.8623Z" fill="white"/>
<path d="M64.4866 29.0754V28.4568C64.5517 28.7404 64.6911 29.001 64.8901 29.211C65.2672 29.4724 65.678 29.6798 66.111 29.8275L66.042 29.9652C65.5528 29.8581 65.0913 29.648 64.6873 29.3487C64.6204 29.2809 64.5535 29.1369 64.4782 29.0754H64.4866ZM64.4866 26.8106C64.5535 26.5374 64.7563 26.3319 65.026 26.0564C65.3879 25.7711 65.8022 25.5615 66.2448 25.4399C66.7734 25.2976 67.3226 25.251 67.8671 25.3022C68.2639 25.3113 68.6458 25.457 68.95 25.7153C69.2298 25.9782 69.4397 26.3083 69.5605 26.6751C69.6385 27.0854 69.6155 27.5089 69.4936 27.9081C69.2483 28.3523 68.8994 28.7291 68.4776 29.0055V29.1432L70.3716 28.4568L70.3027 28.3191C70.1861 28.3367 70.0671 28.3128 69.9661 28.2513C69.8971 28.1835 69.8302 28.1835 69.8302 28.0394V27.764C69.9316 27.3594 69.9316 26.9356 69.8302 26.531C69.6211 25.9823 69.4246 25.5035 69.019 25.1603C68.6326 24.8047 68.1693 24.5456 67.6664 24.4039C67.103 24.3257 66.5304 24.3494 65.9751 24.4739C65.3844 24.6499 64.8636 25.0102 64.4866 25.5035V26.8043V26.8106ZM64.4866 22.5608V21.3256L65.7033 19.7473L64.4866 19.8172V19.474L66.9953 19.2621L67.0622 19.3321L64.4929 22.5544L64.4866 22.5608ZM70.98 35.3146L69.6274 35.5265V35.3803C69.7956 35.3356 69.9558 35.264 70.102 35.1685C70.2628 35.0813 70.3836 34.9337 70.4385 34.7574C70.4996 34.5816 70.5232 34.3945 70.5075 34.2087L70.4385 33.3867L66.0483 33.7278C65.812 33.7579 65.5828 33.8296 65.3709 33.9397C65.2774 34.1067 65.2304 34.2964 65.235 34.4884V34.7002H65.1012L64.8922 32.23L65.0281 32.1622L65.0971 32.374C65.0971 32.6495 65.164 32.855 65.3668 32.9228C65.4336 32.9906 65.6364 32.9906 65.9772 32.9228L70.3675 32.5795L70.2985 31.8253C70.2939 31.6347 70.2482 31.4474 70.1647 31.2766C70.1372 31.1971 70.0925 31.1249 70.0339 31.0651C69.9753 31.0054 69.9043 30.9597 69.826 30.9313C69.6363 30.839 69.428 30.7926 69.2176 30.7957V30.658L70.5702 30.5881L70.98 35.3146ZM64.4866 19.474V19.8172L63.1988 19.9549L64.1458 21.7366L64.4866 21.3256V22.5608L63.7403 23.4506C63.5555 23.6845 63.3964 23.9381 63.2657 24.2069C63.2453 24.4218 63.2929 24.6377 63.4016 24.8234L63.1925 24.8912L62.1786 22.8341L62.3124 22.7663C62.3814 22.9781 62.5214 23.1074 62.5863 23.1074C62.72 23.1773 62.7953 23.1773 62.8538 23.1074C63.0312 22.9948 63.1911 22.8563 63.3284 22.6964L63.8678 21.9443L62.8538 19.9549L61.8399 20.0227C61.679 20.0585 61.5205 20.1045 61.3653 20.1604V19.6795H61.8399L64.4803 19.4676L64.4866 19.474ZM64.4866 25.5098V26.8106C64.4176 26.8806 64.4176 27.0225 64.3486 27.0861C64.2719 27.474 64.2957 27.8754 64.4176 28.2513C64.412 28.2896 64.4153 28.3287 64.4273 28.3655C64.4392 28.4023 64.4596 28.4358 64.4866 28.4631V29.0818C64.2272 28.7872 64.0409 28.4343 63.943 28.0521C63.8058 27.6386 63.771 27.1971 63.8417 26.7667C63.9124 26.3363 64.0865 25.9302 64.3486 25.584C64.4176 25.584 64.4176 25.5162 64.4866 25.5162V25.5098ZM61.3716 16.5249V16.0461L61.5807 16.258C61.7145 16.5313 61.9842 16.6012 62.3228 16.669C62.485 16.6725 62.6461 16.6428 62.7967 16.5816C62.9472 16.5205 63.084 16.4291 63.1988 16.3131C63.3903 16.1808 63.5329 15.9878 63.6044 15.7644C63.7207 15.5568 63.7683 15.317 63.7403 15.0801C63.6921 14.879 63.6 14.6914 63.4706 14.5314L63.065 14.1203L61.3716 15.4911V14.4064L62.049 13.8576C62.3187 13.6458 62.5235 13.4466 62.5235 13.3089C62.5015 13.1314 62.4288 12.9643 62.3145 12.828L62.1807 12.6924L62.3145 12.5547L63.6734 14.1945C63.9499 14.513 64.1572 14.8869 64.2817 15.2919C64.4079 15.5956 64.4314 15.933 64.3486 16.2516C64.2705 16.5657 64.1059 16.8507 63.8741 17.0736C63.7053 17.2116 63.5105 17.3132 63.3017 17.3722C63.0928 17.4312 62.8743 17.4464 62.6594 17.4169C62.1997 17.311 61.7917 17.0439 61.5075 16.6626C61.4406 16.5948 61.4406 16.5249 61.3716 16.5249ZM61.3716 11.3132V11.1014L61.5807 11.237L61.5117 11.3747L61.3716 11.3132ZM61.3716 11.1014V11.237C61.1626 11.1014 60.966 11.0251 60.8302 11.1014C60.6964 11.1014 60.5605 11.237 60.3556 11.5124L59.7493 12.2666V10.9022V10.4912L60.3556 10.2179L61.3716 11.1098V11.1014ZM61.3716 14.3915V15.4889L61.1626 15.6245C61.2315 15.7622 61.2984 15.9 61.3716 16.0377V16.5249C61.3047 16.4571 61.3047 16.3893 61.2378 16.2516C61.1709 16.1139 61.0288 15.9762 60.966 15.8406L59.7493 16.8681V15.7707L61.3716 14.4064V14.3915ZM61.3716 19.671V20.1519C61.2378 20.2197 61.2378 20.2897 61.1626 20.3638C61.1825 20.5624 61.2547 20.7519 61.3716 20.9125L61.2378 20.9803L60.3556 19.4062L60.4915 19.3384C60.6274 19.474 60.7632 19.6117 60.8302 19.6117C61.0041 19.6718 61.1884 19.6949 61.3716 19.6795V19.671ZM59.7493 10.4912V10.9022L54.9409 13.2327L54.803 13.1627L56.2371 7.88536L53.7284 10.9022C53.5193 11.1776 53.3897 11.3831 53.3897 11.5208C53.3897 11.6586 53.5256 11.7941 53.6615 11.9996L53.8705 12.0696L53.7347 12.2051L52.8545 11.4531V11.1098H52.9904C53.1669 10.9961 53.326 10.8569 53.4629 10.6967L55.8984 7.74977C56.0119 7.60391 56.1035 7.44185 56.1702 7.26885C56.2371 7.13115 56.1702 7.05699 56.1702 6.92564C56.0395 6.80123 55.9218 6.6635 55.819 6.51464L55.8859 6.44473L57.1737 7.47436L55.819 12.3471L59.7451 10.4955L59.7493 10.4912ZM59.7493 10.9721L57.2406 13.9212C57.0315 14.1945 56.9019 14.3322 56.7681 14.3322C56.6752 14.3535 56.5786 14.3521 56.4862 14.3281C56.3939 14.3042 56.3085 14.2584 56.2371 14.1945L56.1033 14.0568L56.0343 14.1267L57.8615 15.7707L57.9974 15.633L57.8615 15.4974C57.7765 15.4515 57.7061 15.3822 57.6584 15.2975C57.6107 15.2128 57.5876 15.1161 57.5918 15.0186C57.6409 14.8024 57.7592 14.6087 57.9284 14.4678L59.7577 12.2751V10.9721H59.7493ZM59.7493 15.7707V16.8681H59.6803C59.4085 17.1436 59.2078 17.2792 59.2078 17.4169C59.2178 17.5975 59.2921 17.7684 59.4169 17.8978L59.5549 18.1096L59.4169 18.1774L57.8615 16.258L57.9974 16.1203L58.1333 16.3321C58.1783 16.4186 58.2465 16.4904 58.3302 16.5392C58.4138 16.5879 58.5094 16.6116 58.6057 16.6076C58.7416 16.6076 58.8775 16.4699 59.1493 16.2643L59.7577 15.7834L59.7493 15.7707ZM52.8503 8.36628C52.9561 8.21531 53.0472 8.05424 53.1221 7.88536C53.3208 7.54769 53.4426 7.16937 53.4788 6.77796C53.5149 6.38655 53.4645 5.99189 53.3312 5.62272C53.2595 5.24602 53.0972 4.89308 52.8587 4.5952L52.8503 8.36628ZM52.8503 4.5952V8.36628C52.7321 8.53987 52.5962 8.70036 52.4448 8.84508V6.99132C52.7144 6.30702 52.7834 5.7583 52.6538 5.27739C52.6464 5.07662 52.5728 4.88417 52.4448 4.73079V4.25199C52.5962 4.34507 52.733 4.46077 52.8503 4.5952ZM52.8503 11.1098V11.4531L52.4448 11.1098V10.898C52.4944 10.9585 52.5555 11.0084 52.6244 11.0448C52.6933 11.0812 52.7687 11.1033 52.8462 11.1098H52.8503ZM52.4448 4.25199V4.73291C52.283 4.48185 52.0465 4.28963 51.7695 4.1842C51.5984 4.08002 51.4074 4.01387 51.2092 3.99013C51.011 3.96639 50.81 3.9856 50.6197 4.04649V3.63549C51.0868 3.58559 51.5578 3.68091 51.9702 3.90878C52.1397 4.00626 52.2987 4.12128 52.4448 4.25199ZM52.4448 6.99344V8.84508C52.1198 9.13032 51.7531 9.36261 51.3576 9.53362C51.1158 9.60608 50.867 9.65224 50.6155 9.67132V9.18829C50.6531 9.19411 50.6916 9.19101 50.7279 9.17925C50.7641 9.16749 50.7972 9.14738 50.8245 9.12049C51.2991 8.90864 51.7737 8.36628 52.1793 7.54427C52.2947 7.3747 52.3855 7.18919 52.4489 6.99344H52.4448ZM52.4448 10.9022V11.1141L52.1751 10.9022L52.3089 10.7666L52.4448 10.9022ZM50.6197 3.63549V4.04649C50.5507 4.04649 50.4817 4.11429 50.4106 4.11429C49.7527 4.48724 49.2303 5.06422 48.92 5.76042C48.5123 6.58243 48.3785 7.33665 48.5123 8.02307C48.5434 8.25473 48.637 8.47322 48.7827 8.6545C48.9283 8.83578 49.1205 8.97283 49.3381 9.05058C49.7437 9.326 50.1514 9.326 50.6259 9.18829V9.66921C50.1379 9.68433 49.6525 9.5903 49.2043 9.39379C48.5258 9.03498 48.0148 8.4189 47.7827 7.67986C47.5726 6.87377 47.6688 6.01709 48.0524 5.27951C48.2453 4.89975 48.5129 4.56402 48.8386 4.29295C49.1644 4.02188 49.5414 3.82121 49.9465 3.70328C50.1679 3.64367 50.3973 3.62077 50.6259 3.63549H50.6197ZM29.8433 4.3897V4.04649L30.7924 3.90878L29.8391 2.33044V0.891923L32.3478 4.80071C32.4792 5.06459 32.6637 5.29768 32.8893 5.48501C33.0761 5.58541 33.2934 5.61039 33.4977 5.55492V5.76678L31.267 6.17778L31.198 5.96593C31.371 5.93613 31.5341 5.86334 31.6726 5.75407C31.6987 5.72611 31.7183 5.69255 31.7299 5.65588C31.7415 5.6192 31.7447 5.58035 31.7395 5.54221C31.6822 5.32257 31.5904 5.11369 31.4677 4.92358L30.9952 4.17149L29.8433 4.38335V4.3897ZM38.6426 4.31979L38.7764 4.3897L38.235 5.96593L33.7694 5.82822V5.69051H34.0391C34.1295 5.69946 34.2207 5.68467 34.3038 5.64756C34.3869 5.61046 34.4592 5.55229 34.5137 5.47865C34.6121 5.26476 34.6587 5.03016 34.6496 4.79435L34.7039 1.02963C34.7142 0.793047 34.6675 0.557485 34.5681 0.34321C34.5142 0.269436 34.4423 0.211121 34.3594 0.17398C34.2766 0.13684 34.1857 0.122151 34.0956 0.131352H33.8865V0L36.4559 0.0677946V0.211858C36.2506 0.192358 36.0436 0.215425 35.8475 0.279653C35.746 0.333718 35.6548 0.405428 35.5778 0.491511C35.5085 0.712361 35.4851 0.945332 35.5088 1.17581L35.4566 4.87274C35.4566 5.0846 35.4566 5.28374 35.5235 5.35366C35.5235 5.42145 35.5924 5.42145 35.6593 5.48924C35.8827 5.5324 36.1093 5.5558 36.3367 5.55916H36.7423C37.0596 5.5828 37.3787 5.55924 37.6893 5.48924C37.8727 5.41573 38.0356 5.29791 38.1639 5.14603C38.3745 4.90677 38.5358 4.6273 38.6384 4.32402L38.6426 4.31979ZM47.4378 1.77749L47.0385 3.77108L46.9026 3.70328C46.9329 3.19031 46.7899 2.68218 46.497 2.26265C46.2879 1.91943 45.9555 1.71393 45.481 1.57622C45.1231 1.50845 44.7559 1.50845 44.398 1.57622C44.0081 1.71853 43.6728 1.98262 43.4405 2.33044C43.1709 2.67365 42.9681 3.22236 42.7632 3.84099C42.6421 4.28746 42.62 4.75555 42.6984 5.21171C42.705 5.40637 42.7502 5.59768 42.8314 5.77423C42.9125 5.95077 43.028 6.10892 43.1709 6.23922C43.4193 6.56921 43.7828 6.79051 44.1869 6.85785C44.5116 6.97795 44.8634 7.00148 45.2008 6.92564C45.6303 6.74754 46.0368 6.51703 46.4113 6.23922L46.4803 6.30914C46.1535 6.73214 45.7072 7.04404 45.2008 7.20318C44.7953 7.33877 44.3207 7.27097 43.7792 7.13326C42.8991 6.92141 42.2238 6.37905 41.952 5.55704C41.7048 4.92413 41.6573 4.22909 41.8162 3.56769C42.0252 3.01898 42.2238 2.47027 42.6294 2.05926C42.99 1.70531 43.4307 1.44635 43.913 1.30505C44.4123 1.09931 44.9712 1.09931 45.4705 1.30505C45.908 1.38222 46.3104 1.5972 46.6203 1.91943C46.6893 1.98723 46.7562 2.05714 46.8294 2.05714H47.0385C47.1744 1.98723 47.2475 1.84528 47.3082 1.78385L47.4378 1.77749ZM29.8391 0.891923V2.33044L29.4335 1.71393L28.8252 4.25623L29.8391 4.04437V4.38758L28.7583 4.59944L28.5492 5.55916C28.4998 5.73764 28.4765 5.92253 28.4802 6.10787C28.4802 6.17567 28.5492 6.24346 28.6893 6.31973C28.7562 6.38752 28.959 6.38752 29.2308 6.31973V6.53159L27.4726 6.77946L27.4057 6.64387C27.6753 6.57396 27.8112 6.50616 27.8781 6.36846C28.0212 6.08606 28.1368 5.79017 28.2231 5.48501L29.3666 0.423716L29.5004 0.353803L29.8391 0.902516V0.891923ZM22.9966 8.50399V6.77946L23.4147 7.88536C23.7379 7.85551 24.0562 7.78433 24.3617 7.6735C24.7693 7.53466 25.1242 7.27115 25.3778 6.91929C25.5116 6.57608 25.5868 6.23287 25.4447 5.95957C25.3732 5.73616 25.2306 5.54315 25.0391 5.41086C24.9427 5.31226 24.826 5.23645 24.6974 5.18884C24.5687 5.14123 24.4313 5.123 24.2948 5.13544C23.948 5.15189 23.6059 5.22338 23.2809 5.3473C23.2119 5.41509 23.0718 5.41509 23.007 5.48289V5.1418C23.0348 5.11556 23.0679 5.09588 23.1041 5.08416C23.1402 5.07244 23.1785 5.06897 23.2161 5.074C23.5062 4.95145 23.7789 4.79045 24.0273 4.5952C24.2012 4.45916 24.3213 4.26451 24.3659 4.04649C24.3769 3.8156 24.3543 3.58433 24.299 3.36007C24.24 3.21329 24.1483 3.08228 24.0312 2.9772C23.9141 2.87212 23.7747 2.7958 23.6238 2.75416C23.4334 2.66338 23.2188 2.63881 23.0133 2.68424V2.26265C23.1513 2.26265 23.2872 2.19485 23.421 2.19485C23.7947 2.12334 24.1813 2.19912 24.5018 2.40671C24.6493 2.46502 24.7813 2.55745 24.8873 2.67662C24.9933 2.7958 25.0703 2.93843 25.1123 3.09313C25.2352 3.34896 25.2597 3.64196 25.1813 3.91514C25.0879 4.22081 24.8966 4.48621 24.6377 4.66935C24.9557 4.6492 25.275 4.67272 25.5868 4.73927C25.893 4.87059 26.1429 5.1083 26.2916 5.40966C26.4403 5.71103 26.478 6.05626 26.398 6.38329C26.3209 6.71603 26.1251 7.00809 25.8482 7.20318C25.6391 7.47647 25.1729 7.68198 24.5624 7.88748L22.9966 8.50399ZM22.9966 2.26265V2.67365C22.7677 2.69321 22.5418 2.73942 22.3234 2.81136C22.0909 2.91162 21.8647 3.02624 21.6461 3.15457L22.4572 5.27315C22.5687 5.24378 22.6818 5.22114 22.7959 5.20535C22.8628 5.20535 22.9297 5.13544 23.0049 5.13544V5.47865C22.938 5.47865 22.8711 5.47865 22.8711 5.54856C22.8188 5.54962 22.7673 5.56232 22.7204 5.58575C22.6734 5.60917 22.6321 5.64277 22.5994 5.68415L22.9966 6.77946V8.49551L22.0516 8.9044L21.9826 8.76881L22.1917 8.6989C22.3595 8.60046 22.4993 8.45957 22.5973 8.29001C22.6012 8.05418 22.5555 7.82021 22.4635 7.60359L21.115 4.11429C21.0376 3.89118 20.9238 3.6828 20.7785 3.49778C20.7038 3.46394 20.623 3.44646 20.5412 3.44646C20.4594 3.44646 20.3785 3.46394 20.3039 3.49778V3.28592L22.3318 2.5423C22.5432 2.42081 22.7696 2.3282 23.0049 2.26688L22.9966 2.26265ZM20.2997 9.9425C20.4408 9.68132 20.5543 9.40579 20.6384 9.12049C20.7598 8.4157 20.6403 7.69004 20.2997 7.06335V9.9425ZM20.2997 3.29228V3.50413H20.2328L20.0238 3.57193L19.9569 3.50413V3.43634L20.2955 3.29863L20.2997 3.29228ZM20.2997 7.06335V9.9425C20.2103 10.1185 20.0962 10.2805 19.961 10.4234V9.4637C20.0279 9.4637 20.0279 9.4637 20.0279 9.39379C20.035 9.20843 20.0124 9.02313 19.961 8.84508V6.51464C20.0279 6.58243 20.0969 6.7265 20.1701 6.78794C20.2398 6.86436 20.285 6.96038 20.2997 7.06335ZM19.961 6.51464V8.84508C19.8482 8.34486 19.6659 7.86338 19.4196 7.41504C18.8802 6.52311 18.3387 6.04219 17.7283 5.83669C17.4949 5.73651 17.2389 5.70329 16.9882 5.74065C16.7374 5.77802 16.5017 5.88453 16.3067 6.04855C16.1324 6.1049 15.9869 6.22808 15.9011 6.39176V5.96593C15.9816 5.83936 16.1004 5.74271 16.2398 5.69051C16.8502 5.27951 17.5255 5.21171 18.3304 5.34942C18.9816 5.5492 19.551 5.95817 19.9527 6.51464H19.961ZM19.961 9.4637C19.9354 9.7124 19.8552 9.95215 19.7264 10.1655C19.5977 10.3788 19.4236 10.5603 19.2168 10.6967C19.0153 10.8194 18.7896 10.8953 18.5557 10.9191C18.3218 10.9429 18.0857 10.914 17.8642 10.8344C17.2558 10.6226 16.6453 10.0802 16.1729 9.25608C16.0428 9.09616 15.9499 8.90862 15.9011 8.70737V10.4912C16.2398 10.8883 16.6873 11.1744 17.1868 11.3132C17.998 11.4531 18.6753 11.3831 19.3527 10.9022C19.594 10.8005 19.8041 10.6352 19.961 10.4234V9.4637ZM15.9011 13.3725V12.4107L16.1729 13.0971L15.9011 13.3725ZM15.9011 5.95745V6.37693C15.72 6.61824 15.6033 6.90283 15.5624 7.20318C15.4955 7.61418 15.6293 8.1629 15.9011 8.70949V10.4933L15.4955 10.0823V6.30914C15.6129 6.17471 15.7496 6.059 15.9011 5.96593V5.95745ZM15.9011 12.4022V13.364L15.4955 13.7051V12.9594C15.5501 12.8298 15.573 12.6888 15.5624 12.5484C15.5669 12.4302 15.544 12.3127 15.4955 12.2051V11.6522L15.9011 12.4022ZM15.4955 6.30066V10.0717C15.4955 10.0018 15.4286 9.93403 15.3617 9.79844C15.1303 9.45021 14.9735 9.05666 14.9014 8.6432C14.8294 8.22974 14.8438 7.80557 14.9436 7.39809C15.0685 7.00674 15.2511 6.63676 15.4851 6.30066H15.4955ZM15.4955 11.6501V12.1967C15.4749 12.01 15.4299 11.8269 15.3617 11.6522L15.4955 11.5823V11.6522V11.6501ZM15.4955 12.9509C15.5011 12.989 15.498 13.028 15.4864 13.0647C15.4748 13.1014 15.455 13.135 15.4286 13.1627C15.2708 13.4287 15.0643 13.6617 14.8203 13.8492L14.5485 14.1246C14.2788 14.4064 14.0739 14.5377 14.007 14.6055H13.798C13.6565 14.499 13.521 14.3844 13.3924 14.2623L10.961 11.5886C10.6913 11.3132 10.5554 11.1776 10.5554 11.0399V12.4107L12.8551 14.8788C13.0042 15.0094 13.1203 15.1743 13.1938 15.3597C13.197 15.5632 13.122 15.76 12.9847 15.9084L12.7756 16.0461L12.9094 16.1838L15.4809 13.7136V12.9594L15.4955 12.9509ZM10.5554 19.6117V19.0672C10.7661 18.9457 10.9503 18.7821 11.0969 18.5863C11.219 18.4102 11.3321 18.2277 11.4356 18.0397C11.5132 17.8422 11.5591 17.6333 11.5715 17.4211L10.5554 16.6669V15.5673C10.6223 15.633 10.6223 15.7029 10.6913 15.7029L12.1108 16.7368C12.0872 17.088 12.0169 17.4343 11.9018 17.7664C11.7621 18.1083 11.5802 18.4308 11.3603 18.7261C11.1067 19.0393 10.8351 19.3371 10.5471 19.6181L10.5554 19.6117ZM10.5554 10.7666V10.4234L10.8941 10.0802L10.961 10.2179C10.8039 10.357 10.6673 10.5183 10.5554 10.6967V10.7666ZM3.4474 30.4461L3.85297 30.5139C4.29238 30.5427 4.7254 30.6354 5.13869 30.7893C5.4838 30.9431 5.76901 31.2083 5.94984 31.5436C6.1589 31.8847 6.22162 32.3656 6.1589 32.9821C6.09619 33.5986 5.94984 34.0795 5.68643 34.4227C5.43917 34.7201 5.1091 34.935 4.73939 35.0392C4.31374 35.111 3.87931 35.111 3.45367 35.0392V34.2172H4.46761C4.69953 34.2111 4.92867 34.1645 5.14496 34.0795C5.28085 33.9418 5.48364 33.8062 5.55054 33.5986C5.69278 33.3952 5.78587 33.1608 5.82232 32.9143C5.82514 32.538 5.75407 32.165 5.61326 31.8169C5.48992 31.5478 5.305 31.3125 5.07388 31.1304C4.65338 31.004 4.22337 30.9126 3.78816 30.8571H3.45158V30.4461H3.4474ZM10.5554 10.4234V11.0399V12.4107L10.2857 12.0759C10.0161 11.7941 9.88017 11.6522 9.74428 11.6522C9.65505 11.6505 9.56653 11.6686 9.48492 11.7052C9.40331 11.7418 9.33057 11.796 9.2718 11.8641L9.06275 12.0018L9.00003 11.8641L10.5554 10.4255V10.4234ZM10.5554 15.5673V16.6626L10.2168 16.3893C10.0644 16.2889 9.90662 16.1969 9.74428 16.1139C9.62707 16.1032 9.50933 16.1275 9.4056 16.1838C9.3387 16.1838 9.19654 16.3194 9.06693 16.5249L8.93104 16.3893L10.2857 14.6055L10.4195 14.6754L10.3547 14.7432C10.2168 14.9551 10.1457 15.0864 10.2168 15.2919C10.3164 15.3993 10.4304 15.492 10.5554 15.5673ZM10.5554 19.063C10.453 19.1495 10.339 19.2208 10.2168 19.2749C9.8003 19.4045 9.35879 19.4285 8.93104 19.3448C8.45856 19.2749 7.98609 18.9994 7.51152 18.7261C7.01851 18.3477 6.62387 17.8532 6.36169 17.2855C6.24639 16.9633 6.21602 16.6162 6.27358 16.2785C6.33115 15.9407 6.47465 15.6241 6.68992 15.3597C6.81542 15.1495 6.98259 14.9678 7.18086 14.8264C7.37912 14.6849 7.60419 14.5866 7.84184 14.5377C8.22997 14.5193 8.61846 14.5658 8.99166 14.6754L9.12546 14.6055L7.57006 13.5759L7.43417 13.7136C7.57006 13.8513 7.64323 13.9254 7.64323 13.989V14.1267C7.56544 14.2128 7.47348 14.2844 7.37145 14.3386C7.15979 14.4862 6.95666 14.6461 6.76309 14.8174L6.35751 15.2411C6.03305 15.6514 5.84369 16.1545 5.81605 16.6796C5.7231 17.2957 5.84193 17.9255 6.15263 18.4634C6.35728 18.9302 6.68862 19.3284 7.10804 19.6117C7.65066 20.0274 8.32679 20.2231 9.00421 20.1604C9.56638 20.1459 10.1101 19.9541 10.5596 19.6117V19.0672L10.5554 19.063ZM3.4474 27.6348V27.2217L5.81605 27.978C6.15263 28.1136 6.35751 28.1898 6.42441 28.1136C6.63347 28.0458 6.6941 27.9017 6.76309 27.7026L6.83208 27.4907L7.04114 27.5585L6.36587 29.4779L6.22998 29.4102L6.29897 29.1983C6.33969 29.1095 6.35482 29.0109 6.34262 28.9138C6.33041 28.8168 6.29136 28.7251 6.22998 28.6496C6.07048 28.521 5.88369 28.4318 5.68434 28.389L3.45158 27.6348H3.4474ZM3.4474 26.4674V25.5776L6.5603 24.4103L3.4474 23.315V22.9718H3.5143L8.11361 24.548L8.04462 24.6857L3.4474 26.4674ZM0.474566 31.4736L0.338677 31.4059L0.547737 29.3487H0.683626V29.6241C0.665639 29.7259 0.675629 29.8307 0.712502 29.9271C0.749376 30.0235 0.811711 30.1078 0.892686 30.1707C1.08943 30.2407 1.29363 30.2869 1.50105 30.3084L3.46412 30.4461V30.8571L1.43415 30.6453C1.20616 30.6219 0.975874 30.645 0.756797 30.7131C0.689473 30.773 0.63588 30.847 0.599767 30.9301C0.563655 31.0132 0.545897 31.1032 0.547737 31.194L0.480838 31.4673L0.474566 31.4736ZM3.45158 35.0392H3.31569L1.08293 34.8274C0.833847 34.7695 0.573017 34.794 0.338677 34.8973C0.256429 35.0509 0.186517 35.211 0.129617 35.3761V35.5879H0L0.20906 33.0456H0.344949V33.3189C0.336523 33.4105 0.351302 33.5027 0.387887 33.5869C0.424471 33.671 0.481651 33.7443 0.554009 33.7998C0.620908 33.9354 0.825786 33.9354 1.16237 34.0117L3.46203 34.2236V35.0456L3.45158 35.0392ZM3.45158 22.9633V23.3065H3.38468C3.046 23.1688 2.84321 23.1688 2.70733 23.2366C2.57144 23.2366 2.43555 23.3743 2.36865 23.6476L2.30175 23.7853H2.16586L2.84321 21.8659H2.97701L2.91011 22.0777C2.86954 22.178 2.8544 22.2869 2.86609 22.3946C2.87778 22.5023 2.91591 22.6053 2.97701 22.6942C3.12299 22.8061 3.28247 22.8987 3.45158 22.9697V22.9633ZM3.45158 25.5692V26.459L2.43555 26.8022L3.45158 27.2132V27.6263L1.89617 27.0077L1.35262 27.2831L1.08293 27.5564C0.998574 27.6506 0.95036 27.7724 0.947041 27.8996H0.737981L1.27945 26.3912L3.45158 25.5692Z" fill="white"/>
<path d="M97.3697 57.5301V41.5539H96.1509V55.4051L87.017 41.5539H85.8672V57.5301H87.017V43.6809L96.1509 57.5301H97.3697Z" fill="white"/>
<path d="M108.466 52.3883V51.8396C108.466 48.6172 106.911 46.6279 104.204 46.6279V47.6681C104.789 47.6481 105.367 47.8074 105.862 48.1252C106.357 48.443 106.746 48.9046 106.978 49.4498C107.25 50.1362 107.317 50.4095 107.386 51.4392H104.204V52.3989L108.466 52.3883ZM104.204 57.6678H104.473C106.234 57.6678 107.25 57.1191 108.333 56.0238L107.519 55.3352C106.57 56.2272 105.828 56.6403 104.542 56.6403H104.204V57.6678ZM104.204 46.6279C101.496 46.6279 99.9409 48.685 99.9409 52.1129C99.9409 55.6106 101.429 57.5301 104.204 57.6678V56.6403C102.174 56.5026 101.091 54.9941 101.091 52.3883H104.204V51.4286H101.091C101.091 50.3989 101.158 50.1256 101.429 49.4392C101.678 48.9073 102.071 48.4581 102.562 48.1444C103.053 47.8307 103.623 47.6655 104.204 47.6681V46.6279Z" fill="white"/>
<path d="M114.565 57.5301V56.5026H113.812C112.662 56.5026 112.121 55.8839 112.121 54.7208V47.5876H114.565V46.7656H112.121V43.2678H111.038V46.7656H109.547V47.5876H111.038V54.7208C111.038 56.3649 111.918 57.5301 113.609 57.5301H114.565Z" fill="white"/>
<path d="M132.354 46.7656H131.066L128.361 56.2271L125.317 46.7656H124.165L121.121 56.2271L118.414 46.7656H117.128L120.58 57.5301H121.729L124.775 48.5473L127.752 57.5301H128.902L132.354 46.7656Z" fill="white"/>
<path d="M141.283 52.1171C141.283 50.5409 141.074 48.9647 139.93 47.7973C139.537 47.4102 139.07 47.1074 138.559 46.9072C138.047 46.707 137.501 46.6134 136.953 46.6321V47.6681C137.366 47.6533 137.777 47.7247 138.162 47.8778C138.546 48.0308 138.896 48.2623 139.188 48.5579C140.066 49.4498 140.135 50.8883 140.135 52.1235C140.135 53.3586 140.066 54.8776 139.188 55.7589C138.896 56.0548 138.546 56.2866 138.162 56.44C137.778 56.5935 137.366 56.6652 136.953 56.6509V57.6784C137.501 57.697 138.047 57.6035 138.559 57.4033C139.07 57.203 139.537 56.9003 139.93 56.5132C141.082 55.3352 141.283 53.6912 141.283 52.1171ZM136.953 46.6321C135.848 46.6082 134.778 47.0269 133.976 47.7973C132.826 48.9647 132.624 50.5409 132.624 52.1171C132.624 53.6933 132.833 55.3395 133.976 56.5068C134.778 57.2772 135.848 57.6959 136.953 57.672V56.6445C136.541 56.659 136.13 56.5873 135.746 56.4339C135.362 56.2804 135.014 56.0485 134.722 55.7526C133.84 54.8607 133.773 53.3522 133.773 52.1171C133.773 50.882 133.84 49.4435 134.722 48.5515C135.014 48.2559 135.363 48.0243 135.746 47.8712C136.13 47.7181 136.541 47.6468 136.953 47.6617V46.6321Z" fill="white"/>
<path d="M149.538 48.4795L150.419 47.6681C150.073 47.3203 149.661 47.0491 149.206 46.8718C148.752 46.6945 148.267 46.6151 147.78 46.6385C146.561 46.6385 145.272 47.1872 144.667 48.2168V46.7762H143.518V57.5407H144.669V50.8799C144.669 49.1659 145.686 47.6575 147.513 47.6575C148.456 47.6681 148.93 47.8609 149.538 48.4795Z" fill="white"/>
<path d="M159.891 57.5301L155.562 50.7422L159.08 46.7656H157.658L152.315 52.7993V41.5539H151.232V57.5301H152.315V54.4454L154.817 51.5642L158.472 57.5301H159.891Z" fill="white"/>
<path d="M177.074 52.329V41.5539H175.861V52.1828C175.861 54.8564 174.17 56.5725 171.598 56.5725C169.09 56.5725 167.403 54.8564 167.403 52.1828V41.5539H166.184V52.329C166.184 55.4835 168.417 57.6784 171.598 57.6784C174.78 57.6784 177.074 55.4729 177.074 52.329Z" fill="white"/>
<path d="M188.649 57.5301L184.387 50.7422L187.905 46.7656H186.417L181.14 52.7993V41.5539H179.99V57.5301H181.14V54.4454L183.576 51.5642L187.297 57.5301H188.649Z" fill="white"/>
<path d="M196.295 48.4795L197.108 47.6575C196.364 46.9012 195.617 46.6279 194.536 46.6279C193.318 46.6279 192.028 47.1766 191.424 48.2062V46.7656H190.274V57.5301H191.424V50.8799C191.424 49.1659 192.44 47.6575 194.267 47.6575C195.212 47.6681 195.68 47.8609 196.295 48.4795Z" fill="white"/>
<path d="M205.159 57.5301V50.1151C205.159 47.9202 203.875 46.6173 201.032 46.6173H200.965V47.6681H201.032C203.196 47.6681 204.009 48.5579 204.009 50.2104V51.4455H200.965V52.4052H204.009V53.776C204.009 54.7378 203.8 55.4899 203.401 55.8331C202.723 56.5195 201.912 56.6572 200.965 56.6572V57.6847C202.387 57.6847 203.129 57.3415 204.009 56.4496V57.547L205.159 57.5301ZM200.965 46.6279C199.274 46.6279 198.122 47.0389 197.244 48.274L198.055 49.0282C198.732 47.9986 199.477 47.6575 200.965 47.6575V46.6279ZM200.965 51.4286H200.56C198.26 51.4286 196.836 52.5938 196.836 54.581C196.825 55.3553 197.09 56.1076 197.583 56.6996C198.325 57.3839 199.138 57.6593 200.76 57.6593H200.969V56.6318H200.76C198.799 56.6318 197.988 56.0153 197.988 54.5725C197.988 53.0641 198.866 52.3798 200.693 52.3798H200.965V51.4286Z" fill="white"/>
<path d="M209.083 57.5301V46.7656H207.933V57.5301H209.083ZM209.219 42.9945V41.5539H207.805V42.9945H209.219Z" fill="white"/>
<path d="M220.249 57.5301V50.6044C220.265 50.061 220.171 49.52 219.972 49.0149C219.774 48.5098 219.475 48.0514 219.095 47.6681C218.417 46.9817 217.47 46.6385 216.253 46.6385C214.968 46.6385 213.885 47.1173 213.138 48.0791V46.7762H211.987V57.5407H213.136V50.8099C213.136 48.8227 214.221 47.6575 216.115 47.6575C218.076 47.6575 219.093 48.7528 219.093 50.8099V57.5301H220.249Z" fill="white"/>
<path d="M230.94 52.3883V51.8396C230.94 48.6172 229.316 46.6279 226.677 46.6279V47.6681C227.261 47.6577 227.835 47.8209 228.328 48.1376C228.821 48.4543 229.212 48.9105 229.452 49.4498C229.723 50.1362 229.723 50.4095 229.79 51.4392H226.677V52.3989L230.94 52.3883ZM226.677 57.6678H226.886C228.714 57.6678 229.73 57.1191 230.811 56.0238L229.93 55.3352C229.05 56.2272 228.241 56.6403 226.953 56.6403H226.684L226.677 57.6678ZM226.677 46.6279C223.96 46.6279 222.346 48.685 222.346 52.1129C222.346 55.6106 223.836 57.5301 226.677 57.6678V56.6403C224.587 56.5026 223.496 54.9941 223.496 52.3883H226.677V51.4286H223.496C223.565 50.3989 223.565 50.1256 223.914 49.4392C224.147 48.8951 224.536 48.4345 225.031 48.1168C225.525 47.7992 226.103 47.6392 226.688 47.6575L226.677 46.6279Z" fill="white"/>
<path d="M91.8211 26.3996H95.2037V27.2217C95.2037 29.2809 93.7152 30.6516 91.8211 30.6516C91.343 30.6622 90.8688 30.5626 90.4343 30.3604C89.9997 30.1582 89.6161 29.8586 89.3124 29.4843C88.6413 28.6623 88.4322 28.1771 88.4322 24.8912C88.4322 21.5311 88.6413 21.0523 89.3103 20.2303C89.6144 19.8567 89.9981 19.5577 90.4326 19.3559C90.8671 19.154 91.3411 19.0546 91.819 19.0651C92.5218 19.0725 93.205 19.3006 93.7745 19.718C94.344 20.1354 94.7718 20.7215 94.9988 21.3956H97.5702C97.3325 20.0327 96.6226 18.8006 95.5683 17.921C94.514 17.0413 93.1845 16.5718 91.819 16.597C90.7814 16.5845 89.759 16.8506 88.8557 17.3682C87.9524 17.8858 87.2004 18.6364 86.6761 19.5439C86.1368 20.5036 85.9319 20.9846 85.9319 24.8933C85.9319 28.8021 86.1409 29.283 86.6761 30.2428C87.216 31.131 87.9732 31.8628 88.8742 32.3672C89.7753 32.8716 90.7896 33.1316 91.819 33.1219C95.1347 33.1219 97.7061 30.5796 97.7061 27.3615V24.0692H91.8211V26.3996Z" fill="white"/>
<path d="M100.416 30.1707C100.416 32.2893 101.699 32.9821 103.393 32.9821H104.406V30.7893H103.662C103.054 30.7893 102.782 30.5139 102.782 30.033V16.7368H100.416V30.1707Z" fill="white"/>
<path d="M110.632 33.1198C112.46 33.1198 113.54 32.3656 114.151 31.6791C115.098 30.6516 115.437 29.6898 115.437 27.2301C115.437 24.6878 115.098 23.7345 114.151 22.7811C113.54 22.0947 112.46 21.2727 110.632 21.2727V23.6031C110.993 23.6061 111.348 23.6873 111.675 23.8412C112.002 23.995 112.292 24.218 112.527 24.495C112.932 25.1115 113.068 25.5247 113.068 27.2365C113.068 28.8826 112.932 29.3551 112.527 29.98C112.288 30.2472 111.995 30.459 111.668 30.6012C111.341 30.7434 110.988 30.8126 110.632 30.8042V33.1198ZM105.759 27.2216C105.759 29.6898 106.167 30.6516 107.047 31.6707C107.722 32.3571 108.805 33.1113 110.632 33.1113V30.7809C109.821 30.7809 109.075 30.4377 108.738 29.9567C108.264 29.3402 108.128 28.8593 108.128 27.2132C108.128 25.5014 108.264 25.0946 108.738 24.4717C108.968 24.1886 109.257 23.9615 109.585 23.8071C109.913 23.6527 110.271 23.575 110.632 23.5798V21.2494C109.962 21.2343 109.296 21.3615 108.677 21.6228C108.058 21.884 107.5 22.2735 107.039 22.7663C106.167 23.7281 105.759 24.6857 105.759 27.2216Z" fill="white"/>
<path d="M122.609 33.0499C122.83 33.1095 123.059 33.1324 123.287 33.1177C124.706 33.1177 125.795 32.5011 126.4 31.6092C127.075 30.7872 127.278 30.0309 127.278 27.2195C127.278 24.3404 127.069 23.5862 126.4 22.7705C126.032 22.2912 125.559 21.9053 125.019 21.6434C124.479 21.3816 123.886 21.251 123.287 21.2621C123.015 21.2621 122.812 21.3299 122.609 21.3299V23.5925C124.775 23.5925 124.909 25.4442 124.909 27.2259C124.909 29.0076 124.775 30.7936 122.609 30.7936V33.0499ZM117.872 32.9799H120.241V31.8147C120.877 32.4756 121.709 32.9091 122.609 33.0499V30.7893H122.54C120.375 30.7893 120.241 28.8678 120.241 27.2216C120.241 25.5098 120.375 23.5883 122.54 23.5883H122.609V21.3256C121.729 21.5375 120.985 22.0121 120.241 22.6286V16.7368H117.872V32.9799Z" fill="white"/>
<path d="M136.008 32.9821H138.375V25.0967C138.375 22.2854 136.48 21.3256 133.637 21.2578V23.4506C135.329 23.4506 136.008 23.8743 136.008 24.9611V26.1941H133.637V28.1136H136.008V28.9377C136.008 30.6516 135.398 30.9249 133.637 30.9249V33.1198C134.856 33.052 135.533 32.6961 136.008 31.9546V32.9821ZM133.637 21.2578H133.501C131.743 21.2578 130.457 21.7366 129.577 22.9718L131.404 24.3425C131.81 23.726 132.421 23.4506 133.637 23.4506V21.2578ZM133.637 26.1941H132.753C130.244 26.1941 128.963 27.7704 128.963 29.6241C128.963 31.6114 130.518 33.1198 133.092 33.1198H133.631V30.9313H133.422C131.798 30.9313 131.191 30.247 131.191 29.4907C131.191 28.6686 131.798 28.1199 133.219 28.1199H133.625L133.637 26.1941Z" fill="white"/>
<path d="M141.421 30.1707C141.421 32.2893 142.706 32.9821 144.465 32.9821H145.478V30.7893H144.669C144.128 30.7893 143.789 30.5139 143.789 30.033V16.7368H141.421V30.1707Z" fill="white"/>
<path d="M161.584 28.4568C160.907 29.8974 159.824 30.6516 158.471 30.6516C157.985 30.6539 157.505 30.5509 157.061 30.3495C156.618 30.1482 156.222 29.8532 155.9 29.4843C155.292 28.6623 155.089 28.1835 155.089 24.8912C155.089 21.5311 155.298 21.0523 155.9 20.2303C156.222 19.863 156.617 19.5694 157.06 19.3688C157.503 19.1683 157.982 19.0655 158.467 19.0672C159.164 19.0656 159.843 19.2914 160.404 19.711C160.964 20.1307 161.377 20.7221 161.58 21.3977H164.218C163.982 20.0341 163.272 18.801 162.218 17.9205C161.163 17.0399 159.833 16.5698 158.467 16.5949C155.896 16.5949 154.077 18.1033 153.322 19.5418C152.783 20.5015 152.58 20.9824 152.58 24.8912C152.58 28.8 152.789 29.2809 153.322 30.2406C154.069 31.6114 155.896 33.1198 158.467 33.1198C161.308 33.1198 163.61 31.4737 164.218 28.4589L161.584 28.4568Z" fill="white"/>
<path d="M170.043 33.1198C171.868 33.1198 172.951 32.3656 173.628 31.6791C174.509 30.6516 174.845 29.6898 174.845 27.2301C174.845 24.6878 174.509 23.7345 173.628 22.7811C173.167 22.2909 172.61 21.9036 171.993 21.6439C171.375 21.3842 170.711 21.2578 170.043 21.2727V23.6031C170.402 23.5999 170.758 23.6784 171.084 23.8327C171.409 23.9871 171.697 24.2134 171.925 24.495C172.343 25.1115 172.468 25.5247 172.468 27.2365C172.468 28.8826 172.332 29.3551 171.925 29.98C171.588 30.461 170.844 30.8042 170.043 30.8042V33.1198ZM165.235 27.2217C165.235 29.6898 165.573 30.6516 166.453 31.6707C167.129 32.3571 168.214 33.1113 170.041 33.1113V30.7809C169.228 30.7809 168.483 30.4377 168.145 29.9567C167.67 29.3402 167.536 28.8593 167.536 27.2132C167.536 25.5014 167.67 25.0946 168.145 24.4717C168.375 24.1886 168.664 23.9614 168.993 23.807C169.321 23.6527 169.679 23.575 170.041 23.5798V21.2494C169.372 21.2342 168.708 21.3604 168.09 21.6202C167.472 21.8799 166.915 22.2674 166.453 22.7578C165.575 23.7281 165.237 24.6857 165.237 27.2217H165.235Z" fill="white"/>
<path d="M177.492 32.9821H179.858V26.1264C179.858 24.548 180.805 23.5841 182.158 23.5841C183.511 23.5841 184.458 24.5438 184.458 26.1264V32.9821H186.824V26.1264C186.824 24.548 187.84 23.5841 189.193 23.5841C190.478 23.5841 191.492 24.5438 191.492 26.1264V32.9821H193.859V25.3022C193.867 24.7746 193.771 24.2508 193.577 23.761C193.384 23.2712 193.096 22.8252 192.731 22.449C192.366 22.0727 191.931 21.7737 191.451 21.5692C190.971 21.3648 190.456 21.2589 189.935 21.2579C188.311 21.2579 187.228 21.7367 186.212 22.7663C185.403 21.9443 184.589 21.2579 182.898 21.2579C182.322 21.244 181.75 21.3598 181.223 21.5968C180.696 21.8338 180.228 22.1862 179.852 22.6286V21.3977H177.492V32.9821Z" fill="white"/>
<path d="M201.709 33.0499C201.931 33.106 202.159 33.1289 202.387 33.1177C202.996 33.1366 203.601 33.0099 204.153 32.7478C204.705 32.4858 205.189 32.0957 205.565 31.6092C206.175 30.7872 206.378 30.0309 206.378 27.2195C206.378 24.3404 206.169 23.5862 205.565 22.7705C205.179 22.2957 204.693 21.914 204.144 21.6531C203.594 21.3922 202.994 21.2586 202.387 21.2621C202.178 21.2621 201.912 21.3299 201.709 21.3299V23.5925C203.875 23.5925 204.009 25.4442 204.009 27.2259C204.009 29.0076 203.875 30.7936 201.709 30.7936V33.0499ZM197.039 37.7108H199.41V31.7491C200.085 32.4355 200.829 32.9143 201.709 33.052V30.7894C199.477 30.7894 199.41 28.8678 199.41 27.2217C199.41 25.5098 199.477 23.5883 201.709 23.5883V21.3256C200.827 21.5037 200.022 21.9597 199.41 22.6286V21.3977H197.039V37.7108Z" fill="white"/>
<path d="M215.173 32.9821H217.472V25.0967C217.472 22.2854 215.578 21.3256 212.735 21.2578V23.4506C214.428 23.4506 215.171 23.8743 215.171 24.9611V26.1941H212.735V28.1136H215.171V28.9377C215.171 30.6516 214.495 30.9249 212.735 30.9249V33.1198C213.954 33.052 214.698 32.6961 215.104 31.9546H215.171L215.173 32.9821ZM212.737 21.2578H212.614C210.92 21.2578 209.568 21.7366 208.688 22.9718L210.517 24.3425C210.92 23.726 211.531 23.4506 212.748 23.4506V21.2578H212.737ZM212.737 26.1941H211.926C209.355 26.1941 208.069 27.7704 208.069 29.6241C208.069 31.6114 209.626 33.1198 212.196 33.1198H212.737V30.9313H212.528C210.904 30.9313 210.295 30.247 210.295 29.4907C210.295 28.6686 210.973 28.1199 212.327 28.1199H212.731L212.737 26.1941Z" fill="white"/>
<path d="M227.422 29.6241C227.136 29.983 226.775 30.2736 226.366 30.475C225.956 30.6764 225.508 30.7838 225.053 30.7893C223.159 30.7893 222.007 29.7597 222.007 27.2217C222.007 24.6836 223.159 23.5883 225.053 23.5883C225.513 23.6062 225.963 23.7261 226.373 23.9395C226.782 24.1529 227.14 24.4546 227.422 24.8234L229.182 23.315C228.166 22.1476 226.746 21.2578 224.984 21.2578C222.279 21.2578 219.64 22.9718 219.64 27.2217C219.64 31.4715 222.279 33.1198 224.984 33.1198C225.784 33.1167 226.574 32.9372 227.299 32.5936C228.024 32.2501 228.666 31.7508 229.182 31.1304L227.422 29.6241Z" fill="white"/>
<path d="M230.94 21.3977H229.79V23.1815H230.94V30.1728C230.94 31.9567 232.159 32.9842 233.783 32.9842H235V30.7893H234.12C233.578 30.7893 233.309 30.5775 233.309 29.9652V23.1857H235V21.3977H233.311V17.8978H230.942L230.94 21.3977Z" fill="white"/>
</svg>
